<svg xmlns="http://www.w3.org/2000/svg" width="1280" height="670" viewBox="0 0 1280 670" fill="none">
  <defs>
    <filter id="paperNoise" x="-20%" y="-20%" width="140%" height="140%">
      <feTurbulence type="fractalNoise" baseFrequency="0.8" numOctaves="2" seed="13" />
      <feColorMatrix type="saturate" values="0" />
      <feComponentTransfer>
        <feFuncA type="table" tableValues="0 0.06" />
      </feComponentTransfer>
    </filter>
    <filter id="inkBlur" x="-20%" y="-20%" width="140%" height="140%">
      <feGaussianBlur stdDeviation="1.2" />
    </filter>
  </defs>
  <rect width="1280" height="670" fill="#FAF7F2"/>
  <rect width="1280" height="670" fill="#000" filter="url(#paperNoise)"/>
  <path d="M76 138C212 96 374 56 548 82C640 96 770 150 916 166C978 172 1036 164 1100 132L1116 190C1052 228 986 242 910 236C748 224 636 164 516 154C350 140 222 182 88 250Z" fill="#111111" opacity="0.17" filter="url(#inkBlur)"/>
  <path d="M992 130C1070 80 1168 96 1216 166C1262 234 1254 334 1196 396C1130 470 1026 480 964 416C902 350 896 214 992 130Z" fill="#111111" opacity="0.08"/>
  <text x="92" y="88" fill="#A5793E" font-size="22" font-family="'Hiragino Sans', 'Yu Gothic', sans-serif" letter-spacing="9">YORU NO TERAKOYA</text>
  <text x="92" y="212" fill="#171311" font-size="108" font-weight="700" font-family="'Hiragino Mincho ProN', 'Yu Mincho', serif">
    <tspan x="92" dy="0">夜だから話せる、</tspan>
    <tspan x="92" dy="98">ほんまのことがある。</tspan>
  </text>
  <text x="92" y="436" fill="#3A312B" font-size="28" font-family="'Hiragino Sans', 'Yu Gothic', sans-serif" letter-spacing="2">経営者とリーダーの源流に触れる少人数対話</text>
  
  <text x="92" y="588" fill="#6B5A4C" font-size="19" font-family="'Hiragino Sans', 'Yu Gothic', sans-serif" letter-spacing="4">今里寺子屋 / 前田薫 / 毎月第4木曜</text>
  <rect x="1124" y="508" width="86" height="86" rx="8" fill="#8D2B20"/>
  <text x="1167" y="566" text-anchor="middle" fill="#F7F3EE" font-size="42" font-weight="700" font-family="'Hiragino Mincho ProN', 'Yu Mincho', serif">夜</text>
</svg>
